<svg width="418" height="70" viewBox="0 0 418 70" fill="none" xmlns="http://www.w3.org/2000/svg">
<rect y="1.12635" width="34.9162" height="34.9162" rx="17.4581" fill="#56CCF2"/>
<rect x="32.6636" y="34.9162" width="34.9162" height="34.9162" rx="17.4581" fill="#56CCF2"/>
<rect y="7.62939e-06" width="69.8324" height="69.8324" rx="34.9162" fill="#377DFF"/>
<path d="M14.413 42.0035C14.413 41.3482 14.7167 40.7198 15.2573 40.2564C15.7979 39.793 16.5311 39.5327 17.2956 39.5327H23.0608C23.8253 39.5327 24.5585 39.793 25.0991 40.2564C25.6397 40.7198 25.9434 41.3482 25.9434 42.0035V49.4159C25.9434 50.0712 25.6397 50.6996 25.0991 51.163C24.5585 51.6264 23.8253 51.8867 23.0608 51.8867H17.2956C16.5311 51.8867 15.7979 51.6264 15.2573 51.163C14.7167 50.6996 14.413 50.0712 14.413 49.4159V42.0035ZM28.8259 32.1203C28.8259 31.465 29.1296 30.8366 29.6702 30.3732C30.2108 29.9099 30.944 29.6495 31.7085 29.6495H37.4737C38.2382 29.6495 38.9714 29.9099 39.512 30.3732C40.0526 30.8366 40.3563 31.465 40.3563 32.1203V49.4159C40.3563 50.0712 40.0526 50.6996 39.512 51.163C38.9714 51.6264 38.2382 51.8867 37.4737 51.8867H31.7085C30.944 51.8867 30.2108 51.6264 29.6702 51.163C29.1296 50.6996 28.8259 50.0712 28.8259 49.4159V32.1203ZM43.2389 19.7664C43.2389 19.1111 43.5426 18.4826 44.0832 18.0192C44.6238 17.5559 45.357 17.2956 46.1215 17.2956H51.8867C52.6512 17.2956 53.3844 17.5559 53.925 18.0192C54.4656 18.4826 54.7693 19.1111 54.7693 19.7664V49.4159C54.7693 50.0712 54.4656 50.6996 53.925 51.163C53.3844 51.6264 52.6512 51.8867 51.8867 51.8867H46.1215C45.357 51.8867 44.6238 51.6264 44.0832 51.163C43.5426 50.6996 43.2389 50.0712 43.2389 49.4159V19.7664Z" fill="white"/>
<path d="M125.44 55.1161H136.064L118.144 11.1481H107.584L89.6644 55.1161H100.224L103.04 48.2041H122.624L125.44 55.1161ZM106.304 40.2041L112.832 24.1401L119.36 40.2041H106.304ZM175.103 19.6601V11.1481H141.247V55.1161H175.103V46.6041H150.719V36.9401H172.799V28.4281H150.719V19.6601H175.103ZM193.639 55.1161H203.111V19.6601H216.807V11.1481H179.943V19.6601H193.639V55.1161ZM252.562 11.1481V28.4281H232.53V11.1481H223.122V55.1161H232.53V36.9401H252.562V55.1161H261.97V11.1481H252.562ZM304.54 19.6601V11.1481H270.684V55.1161H304.54V46.6041H280.156V36.9401H302.236V28.4281H280.156V19.6601H304.54ZM348.868 55.1161L338.052 39.7561C344.068 37.6441 348.036 32.5241 348.036 25.9961C348.036 17.2921 340.996 11.1481 331.46 11.1481H311.684V55.1161H321.092V40.8441H328.068L338.116 55.1161H348.868ZM321.092 19.7881H330.436C335.108 19.7881 338.308 22.2201 338.308 25.9961C338.308 29.7721 335.108 32.2041 330.436 32.2041H321.092V19.7881Z" fill="#222222"/>
<rect x="351" y="1" width="66.5854" height="30" rx="15" fill="#FFAF37"/>
<path d="M361.3 21.3171H367.639C369.94 21.3171 371.591 19.9824 371.591 18.0507C371.591 16.7161 370.783 15.5922 369.378 14.96C370.449 14.398 371.064 13.5024 371.064 12.2732C371.064 10.5171 369.571 9.25268 367.411 9.25268H361.3V21.3171ZM363.881 14.1171V11.4654H366.761C367.727 11.4654 368.412 12.0273 368.412 12.7824C368.412 13.5551 367.727 14.1171 366.761 14.1171H363.881ZM363.881 19.1044V16.1541H367.165C368.201 16.1541 368.939 16.7688 368.939 17.6293C368.939 18.4898 368.201 19.1044 367.165 19.1044H363.881ZM382.763 11.5883V9.25268H373.473V21.3171H382.763V18.9815H376.073V16.3298H382.131V13.9941H376.073V11.5883H382.763ZM387.849 21.3171H390.448V11.5883H394.206V9.25268H384.091V11.5883H387.849V21.3171ZM403.881 21.3171H406.796L401.879 9.25268H398.981L394.064 21.3171H396.962L397.735 19.4205H403.108L403.881 21.3171ZM398.63 17.2254L400.421 12.8176L402.213 17.2254H398.63Z" fill="white"/>
</svg>
