<?xml version="1.0" standalone="no"?>
<!DOCTYPE svg PUBLIC "-//W3C//DTD SVG 20010904//EN"
 "http://www.w3.org/TR/2001/REC-SVG-20010904/DTD/svg10.dtd">
<svg version="1.0" xmlns="http://www.w3.org/2000/svg"
 width="280.000000pt" height="280.000000pt" viewBox="0 0 280.000000 280.000000"
 preserveAspectRatio="xMidYMid meet">
<metadata>
Created by potrace 1.14, written by Peter Selinger 2001-2017
</metadata>
<g transform="translate(0.000000,280.000000) scale(0.100000,-0.100000)"
fill="#000000" stroke="none">
<path d="M1165 2784 c-44 -7 -118 -24 -163 -37 -79 -23 -86 -24 -130 -9 -61
19 -258 22 -332 4 -30 -8 -98 -34 -150 -59 -81 -39 -107 -58 -180 -132 -94
-95 -139 -163 -178 -273 -23 -65 -26 -88 -26 -213 -1 -118 3 -151 21 -211 18
-57 21 -77 13 -105 -41 -139 -52 -414 -24 -580 74 -432 351 -811 741 -1012
281 -145 637 -191 939 -122 56 13 66 12 125 -7 85 -27 256 -29 349 -5 237 63
421 233 500 463 31 89 43 209 31 297 -10 74 -10 79 24 179 19 57 42 146 51
198 24 131 24 363 0 490 -113 589 -563 1035 -1145 1134 -115 19 -352 20 -466
0z m976 -701 c15 -9 33 -28 39 -43 7 -17 10 -221 8 -638 l-3 -614 -33 -29 -34
-30 -164 3 -164 3 -27 28 -28 27 0 626 0 626 33 29 32 29 156 0 c128 0 161 -3
185 -17z m-562 -507 l31 -30 0 -368 c0 -400 -1 -412 -55 -436 -16 -8 -80 -12
-171 -12 -153 0 -192 9 -214 49 -14 27 -14 755 0 781 23 43 56 50 222 47 l157
-2 30 -29z m-580 -392 l31 -26 0 -183 c0 -180 -1 -184 -24 -212 l-24 -28 -159
-3 c-173 -4 -209 4 -232 54 -7 15 -11 91 -11 195 l0 171 29 29 29 29 165 0
c163 0 166 0 196 -26z"/>
</g>
</svg>
