<svg width="70" height="70" viewBox="0 0 70 70" fill="none" xmlns="http://www.w3.org/2000/svg">
<rect y="1.12635" width="34.9162" height="34.9162" rx="17.4581" fill="#56CCF2"/>
<rect x="32.6636" y="34.9162" width="34.9162" height="34.9162" rx="17.4581" fill="#56CCF2"/>
<rect y="7.62939e-06" width="69.8324" height="69.8324" rx="34.9162" fill="#377DFF"/>
<path d="M14.413 42.0035C14.413 41.3482 14.7167 40.7198 15.2573 40.2564C15.7979 39.793 16.5311 39.5327 17.2956 39.5327H23.0608C23.8253 39.5327 24.5585 39.793 25.0991 40.2564C25.6397 40.7198 25.9434 41.3482 25.9434 42.0035V49.4159C25.9434 50.0712 25.6397 50.6996 25.0991 51.163C24.5585 51.6264 23.8253 51.8867 23.0608 51.8867H17.2956C16.5311 51.8867 15.7979 51.6264 15.2573 51.163C14.7167 50.6996 14.413 50.0712 14.413 49.4159V42.0035ZM28.8259 32.1203C28.8259 31.465 29.1296 30.8366 29.6702 30.3732C30.2108 29.9099 30.944 29.6495 31.7085 29.6495H37.4737C38.2382 29.6495 38.9714 29.9099 39.512 30.3732C40.0526 30.8366 40.3563 31.465 40.3563 32.1203V49.4159C40.3563 50.0712 40.0526 50.6996 39.512 51.163C38.9714 51.6264 38.2382 51.8867 37.4737 51.8867H31.7085C30.944 51.8867 30.2108 51.6264 29.6702 51.163C29.1296 50.6996 28.8259 50.0712 28.8259 49.4159V32.1203ZM43.2389 19.7664C43.2389 19.1111 43.5426 18.4826 44.0832 18.0192C44.6238 17.5559 45.357 17.2956 46.1215 17.2956H51.8867C52.6512 17.2956 53.3844 17.5559 53.925 18.0192C54.4656 18.4826 54.7693 19.1111 54.7693 19.7664V49.4159C54.7693 50.0712 54.4656 50.6996 53.925 51.163C53.3844 51.6264 52.6512 51.8867 51.8867 51.8867H46.1215C45.357 51.8867 44.6238 51.6264 44.0832 51.163C43.5426 50.6996 43.2389 50.0712 43.2389 49.4159V19.7664Z" fill="white"/>
</svg>
